<?xml version="1.0" encoding="UTF-8"?>
<!-- Generator: Adobe Illustrator 27.3.1, SVG Export Plug-In . SVG Version: 6.00 Build 0)  -->
<svg version="1.1" id="Calque_1" xmlns="http://www.w3.org/2000/svg" xmlns:xlink="http://www.w3.org/1999/xlink" x="0px" y="0px" viewBox="0 0 1080 342.23" style="cursor: default;" xml:space="preserve">
<style type="text/css">
	.st0{fill:#510087;}
	.st1{fill:#FEBC11;}
	.st2{fill:#FFD500;}
	.st3{fill:#FFFFFF;}
	.st4{fill:#2E075B;}
	.st5{fill:#3AB870;}
	.st6{fill:#10002B;}
	.st7{fill:#240046;}
	.st8{fill:#0D6147;}
	.st9{fill:#0E6147;}
	.st10{fill:#022D3D;}
	.st11{fill:#05C7A4;}
	.st12{fill:#1C604E;}
	.st13{fill:#1D604D;}
</style>
<g>
	<g>
		<g>
			<path class="st12" d="M319.04,284.59c-9.75,0-18.26-1.84-25.51-5.53c-7.26-3.69-12.91-9.01-16.95-15.97     c-4.04-6.96-6.07-15.13-6.07-24.53c0-7.14,1.13-13.53,3.39-19.18c2.26-5.65,5.53-10.5,9.81-14.54c4.28-4.04,9.4-7.11,15.34-9.19     c5.95-2.08,12.61-3.12,19.98-3.12c9.75,0,18.26,1.84,25.51,5.53c7.25,3.69,12.87,8.98,16.86,15.88     c3.98,6.9,5.98,15.11,5.98,24.62c0,7.14-1.13,13.5-3.39,19.09c-2.26,5.59-5.53,10.44-9.81,14.54s-9.4,7.2-15.34,9.28     C332.9,283.55,326.3,284.59,319.04,284.59z M319.04,260.87c3.21,0,6.04-0.74,8.47-2.23c2.44-1.49,4.37-3.89,5.8-7.23     c1.43-3.33,2.14-7.61,2.14-12.85c0-7.97-1.55-13.71-4.64-17.22c-3.09-3.51-7.02-5.26-11.78-5.26c-3.21,0-6.07,0.78-8.56,2.32     c-2.5,1.55-4.46,3.96-5.89,7.23c-1.43,3.27-2.14,7.58-2.14,12.94c0,7.85,1.54,13.53,4.64,17.04     C310.18,259.11,314.16,260.87,319.04,260.87z"/>
			<path class="st12" d="M426.45,284.59c-9.75,0-18.26-1.84-25.51-5.53c-7.26-3.69-12.91-9.01-16.95-15.97     c-4.04-6.96-6.07-15.13-6.07-24.53c0-7.14,1.13-13.53,3.39-19.18c2.26-5.65,5.53-10.5,9.81-14.54c4.28-4.04,9.4-7.11,15.34-9.19     c5.95-2.08,12.61-3.12,19.98-3.12c9.75,0,18.26,1.84,25.51,5.53c7.25,3.69,12.87,8.98,16.86,15.88     c3.98,6.9,5.98,15.11,5.98,24.62c0,7.14-1.13,13.5-3.39,19.09c-2.26,5.59-5.53,10.44-9.81,14.54s-9.4,7.2-15.34,9.28     C440.31,283.55,433.7,284.59,426.45,284.59z M426.45,260.87c3.21,0,6.04-0.74,8.47-2.23c2.44-1.49,4.37-3.89,5.8-7.23     c1.43-3.33,2.14-7.61,2.14-12.85c0-7.97-1.55-13.71-4.64-17.22c-3.09-3.51-7.02-5.26-11.78-5.26c-3.21,0-6.07,0.78-8.56,2.32     c-2.5,1.55-4.46,3.96-5.89,7.23c-1.43,3.27-2.14,7.58-2.14,12.94c0,7.85,1.54,13.53,4.64,17.04     C417.59,259.11,421.57,260.87,426.45,260.87z"/>
			<path class="st12" d="M505.31,284.24c-5.24,0-9.19-1.4-11.87-4.19c-2.68-2.79-4.01-6.75-4.01-11.87v-97.24     c0-5.11,1.34-9.07,4.01-11.87c2.68-2.79,6.63-4.19,11.87-4.19c5,0,8.89,1.4,11.69,4.19c2.79,2.8,4.19,6.75,4.19,11.87v58.88h0.36     l21.77-26.23c2.97-3.57,5.74-6.24,8.3-8.03c2.56-1.78,6.04-2.68,10.44-2.68c4.4,0,7.79,1.1,10.17,3.3     c2.38,2.2,3.63,4.91,3.75,8.12c0.12,3.21-1.13,6.48-3.75,9.81l-23.55,27.83v-11.24l26.23,33.19c2.62,3.33,3.69,6.57,3.21,9.72     c-0.48,3.15-1.99,5.71-4.55,7.67c-2.56,1.96-5.8,2.94-9.72,2.94c-4.76,0-8.56-0.86-11.42-2.59s-5.65-4.49-8.39-8.3l-22.48-27.48     h-0.36v22.3C521.19,278.89,515.9,284.24,505.31,284.24z"/>
			<path class="st12" d="M608.8,180.4c-5.71,0-10.11-1.31-13.2-3.93c-3.09-2.61-4.64-6.36-4.64-11.24c0-5,1.54-8.8,4.64-11.42     c3.09-2.61,7.49-3.92,13.2-3.92c5.59,0,9.93,1.31,13.02,3.92c3.09,2.62,4.64,6.42,4.64,11.42c0,4.88-1.55,8.63-4.64,11.24     C618.73,179.09,614.39,180.4,608.8,180.4z M608.8,283.88c-5.24,0-9.19-1.46-11.87-4.37c-2.68-2.91-4.01-7.16-4.01-12.76v-56.56     c0-5.59,1.34-9.84,4.01-12.76c2.68-2.91,6.63-4.37,11.87-4.37c5,0,8.89,1.46,11.69,4.37c2.79,2.92,4.19,7.17,4.19,12.76v56.56     c0,5.59-1.37,9.84-4.1,12.76C617.83,282.43,613.91,283.88,608.8,283.88z"/>
			<path class="st12" d="M652.86,282.45c-3.09,0-5.65-0.83-7.67-2.5c-2.02-1.66-3.42-3.75-4.19-6.24c-0.78-2.5-0.78-5.17,0-8.03     c0.77-2.85,2.29-5.53,4.55-8.03l41.39-46.75v7.14h-35.33c-3.69,0-6.6-1.01-8.74-3.03c-2.14-2.02-3.21-4.88-3.21-8.56     c0-3.92,1.07-6.87,3.21-8.83c2.14-1.96,5.05-2.94,8.74-2.94h50.49c3.57,0,6.48,0.8,8.74,2.41c2.26,1.61,3.77,3.66,4.55,6.16     c0.77,2.5,0.8,5.2,0.09,8.12c-0.71,2.92-2.2,5.56-4.46,7.94l-42.46,47.99v-8.21h38c7.85,0,11.78,3.93,11.78,11.78     c0,3.69-0.98,6.54-2.94,8.56c-1.96,2.02-4.91,3.03-8.83,3.03H652.86z"/>
			<path class="st12" d="M774.55,284.59c-9.75,0-18.26-1.84-25.51-5.53c-7.26-3.69-12.91-9.01-16.95-15.97     c-4.04-6.96-6.07-15.13-6.07-24.53c0-7.14,1.13-13.53,3.39-19.18c2.26-5.65,5.53-10.5,9.81-14.54c4.28-4.04,9.4-7.11,15.34-9.19     c5.95-2.08,12.61-3.12,19.98-3.12c9.75,0,18.26,1.84,25.51,5.53c7.25,3.69,12.87,8.98,16.86,15.88     c3.98,6.9,5.98,15.11,5.98,24.62c0,7.14-1.13,13.5-3.39,19.09c-2.26,5.59-5.53,10.44-9.81,14.54s-9.4,7.2-15.34,9.28     C788.4,283.55,781.8,284.59,774.55,284.59z M774.55,260.87c3.21,0,6.04-0.74,8.47-2.23c2.44-1.49,4.37-3.89,5.8-7.23     c1.43-3.33,2.14-7.61,2.14-12.85c0-7.97-1.55-13.71-4.64-17.22c-3.09-3.51-7.02-5.26-11.78-5.26c-3.21,0-6.07,0.78-8.56,2.32     c-2.5,1.55-4.46,3.96-5.89,7.23c-1.43,3.27-2.14,7.58-2.14,12.94c0,7.85,1.54,13.53,4.64,17.04     C765.68,259.11,769.67,260.87,774.55,260.87z"/>
			<path class="st12" d="M853.41,284.24c-5.24,0-9.19-1.4-11.87-4.19c-2.68-2.79-4.01-6.75-4.01-11.87v-59.24     c0-5.11,1.34-9.07,4.01-11.87c2.68-2.79,6.51-4.19,11.51-4.19c4.88,0,8.65,1.4,11.33,4.19c2.68,2.8,4.01,6.75,4.01,11.87v8.39     l-1.96-7.32c2.85-5.59,6.93-9.9,12.22-12.94c5.29-3.03,11.33-4.55,18.11-4.55c7.02,0,12.79,1.4,17.31,4.19     c4.52,2.8,7.91,6.96,10.17,12.49c2.26,5.53,3.39,12.64,3.39,21.32v37.65c0,5.12-1.37,9.07-4.1,11.87     c-2.74,2.79-6.66,4.19-11.78,4.19c-5.12,0-9.04-1.4-11.78-4.19c-2.74-2.79-4.1-6.75-4.1-11.87v-36.4c0-5.23-0.92-9.01-2.77-11.33     c-1.85-2.32-4.55-3.48-8.12-3.48c-4.76,0-8.56,1.52-11.42,4.55c-2.85,3.03-4.28,7.11-4.28,12.22v34.43     C869.29,278.89,863.99,284.24,853.41,284.24z"/>
			<path class="st12" d="M993.65,284.59c-10.71,0-19.96-1.9-27.74-5.71c-7.79-3.81-13.77-9.16-17.93-16.06     c-4.17-6.9-6.25-14.99-6.25-24.26c0-9.04,1.99-17.01,5.98-23.91c3.98-6.9,9.46-12.31,16.41-16.24c6.96-3.93,14.9-5.89,23.82-5.89     c6.54,0,12.49,1.07,17.84,3.21c5.35,2.14,9.9,5.21,13.65,9.19c3.75,3.99,6.63,8.77,8.65,14.36c2.02,5.59,3.03,11.9,3.03,18.91     c0,2.26-0.66,3.99-1.96,5.17c-1.31,1.19-3.33,1.78-6.07,1.78h-54.77V230h39.43l-2.68,2.32c0-4.4-0.6-8-1.78-10.79     c-1.19-2.79-2.94-4.88-5.26-6.25c-2.32-1.37-5.21-2.05-8.65-2.05c-3.69,0-6.9,0.86-9.63,2.59c-2.74,1.73-4.79,4.25-6.16,7.58     c-1.37,3.33-2.05,7.49-2.05,12.49v1.43c0,8.56,1.87,14.63,5.62,18.2c3.75,3.57,9.54,5.35,17.4,5.35c2.62,0,5.62-0.29,9.01-0.89     c3.39-0.59,6.63-1.49,9.72-2.68c3.09-1.19,5.77-1.4,8.03-0.62c2.26,0.77,4.01,2.05,5.26,3.84s1.96,3.9,2.14,6.33     c0.18,2.44-0.36,4.73-1.61,6.87c-1.25,2.14-3.3,3.81-6.16,5c-4.05,1.9-8.42,3.36-13.11,4.37     C1003.13,284.09,998.4,284.59,993.65,284.59z"/>
		</g>
	</g>
</g>
<g>
	<g>
		<path class="st1" d="M248.57,191.75c-7.44-9.55-17.3-15.63-29.56-18.25c0.45-0.13,0.9-0.27,1.34-0.41H90.84v108.99h98.62    c22.12,0,39.36-5.18,51.73-15.53c12.37-10.35,18.55-24.38,18.55-42.07C259.73,212.21,256.01,201.3,248.57,191.75z M200.47,234.57    c-4.73,3.92-11.41,5.88-20.06,5.88h-38v-46.75h37.4c8.65,0,15.43,2.11,20.36,6.33c4.92,4.22,7.39,10.05,7.39,17.49    C207.56,224.97,205.19,230.65,200.47,234.57z"/>
	</g>
</g>
<path class="st13" d="M167.87,44.58c-57.65-17.44-90.66,39.33-90.66,39.33C43.35,134.6,90.09,282.85,90.09,282.85  s118.33-70.11,132.12-145.13C236,62.71,167.87,44.58,167.87,44.58z M142.41,157.41c-19.98,0-36.17-16.19-36.17-36.17  c0-19.98,16.19-36.17,36.17-36.17c19.98,0,36.17,16.19,36.17,36.17C178.58,141.21,162.39,157.41,142.41,157.41z"/>
</svg>